<svg xmlns="http://www.w3.org/2000/svg" viewBox="0 0 32 32" shape-rendering="crispEdges">
  <!-- Pixel CD: Flat silver, no gradient, deeper gray -->

  <!-- Disc body - single flat color -->
  <rect x="11" y="2" width="10" height="1" fill="#707070"/>
  <rect x="8" y="3" width="16" height="1" fill="#707070"/>
  <rect x="6" y="4" width="20" height="1" fill="#707070"/>
  <rect x="5" y="5" width="22" height="1" fill="#707070"/>
  <rect x="4" y="6" width="24" height="1" fill="#707070"/>
  <rect x="3" y="7" width="26" height="1" fill="#707070"/>
  <rect x="3" y="8" width="26" height="1" fill="#707070"/>
  <rect x="2" y="9" width="28" height="1" fill="#707070"/>
  <rect x="2" y="10" width="28" height="1" fill="#707070"/>
  <rect x="2" y="11" width="28" height="1" fill="#707070"/>
  <rect x="1" y="12" width="30" height="1" fill="#707070"/>
  <rect x="1" y="13" width="30" height="1" fill="#707070"/>
  <rect x="1" y="14" width="30" height="1" fill="#707070"/>
  <rect x="1" y="15" width="30" height="1" fill="#707070"/>
  <rect x="1" y="16" width="30" height="1" fill="#707070"/>
  <rect x="1" y="17" width="30" height="1" fill="#707070"/>
  <rect x="1" y="18" width="30" height="1" fill="#707070"/>
  <rect x="1" y="19" width="30" height="1" fill="#707070"/>
  <rect x="2" y="20" width="28" height="1" fill="#707070"/>
  <rect x="2" y="21" width="28" height="1" fill="#707070"/>
  <rect x="2" y="22" width="28" height="1" fill="#707070"/>
  <rect x="3" y="23" width="26" height="1" fill="#707070"/>
  <rect x="3" y="24" width="26" height="1" fill="#707070"/>
  <rect x="4" y="25" width="24" height="1" fill="#707070"/>
  <rect x="5" y="26" width="22" height="1" fill="#707070"/>
  <rect x="6" y="27" width="20" height="1" fill="#707070"/>
  <rect x="8" y="28" width="16" height="1" fill="#707070"/>
  <rect x="11" y="29" width="10" height="1" fill="#707070"/>

  <!-- Rainbow shimmer streak -->
  <rect x="8" y="4" width="2" height="1" fill="#E8B0B0"/>
  <rect x="6" y="5" width="2" height="1" fill="#E8C8A0"/>
  <rect x="5" y="6" width="2" height="1" fill="#D8D8A0"/>
  <rect x="4" y="7" width="2" height="1" fill="#A0D8A0"/>
  <rect x="3" y="8" width="2" height="1" fill="#A0C8D8"/>
  <rect x="3" y="9" width="2" height="1" fill="#A0A8D8"/>
  <rect x="2" y="10" width="2" height="1" fill="#B8A0D8"/>

  <rect x="22" y="24" width="2" height="1" fill="#D8A0C0"/>
  <rect x="24" y="23" width="2" height="1" fill="#A0C0D8"/>
  <rect x="25" y="22" width="2" height="1" fill="#A0D8B8"/>

  <!-- White highlight -->
  <rect x="12" y="3" width="6" height="1" fill="#A0A0A0"/>
  <rect x="9" y="4" width="4" height="1" fill="#909090"/>

  <!-- Center label -->
  <rect x="12" y="10" width="8" height="1" fill="#D0D0D0"/>
  <rect x="11" y="11" width="10" height="1" fill="#D0D0D0"/>
  <rect x="10" y="12" width="12" height="8" fill="#D0D0D0"/>
  <rect x="11" y="20" width="10" height="1" fill="#D0D0D0"/>
  <rect x="12" y="21" width="8" height="1" fill="#D0D0D0"/>

  <!-- Center hole -->
  <rect x="14" y="13" width="4" height="1" fill="#404040"/>
  <rect x="13" y="14" width="6" height="1" fill="#404040"/>
  <rect x="13" y="15" width="6" height="1" fill="#404040"/>
  <rect x="13" y="16" width="6" height="1" fill="#404040"/>
  <rect x="13" y="17" width="6" height="1" fill="#404040"/>
  <rect x="14" y="18" width="4" height="1" fill="#404040"/>
</svg>
