<svg xmlns="http://www.w3.org/2000/svg" viewBox="0 0 16 16" shape-rendering="crispEdges">
  <!-- Simple pixel CD: rounder shape, darker gray -->

  <!-- Disc fill - rounder circle -->
  <rect x="5" y="0" width="6" height="1" fill="#484848"/>
  <rect x="3" y="1" width="10" height="1" fill="#484848"/>
  <rect x="2" y="2" width="12" height="1" fill="#484848"/>
  <rect x="1" y="3" width="14" height="1" fill="#484848"/>
  <rect x="1" y="4" width="14" height="1" fill="#484848"/>
  <rect x="0" y="5" width="16" height="1" fill="#484848"/>
  <rect x="0" y="6" width="16" height="1" fill="#484848"/>
  <rect x="0" y="7" width="16" height="1" fill="#484848"/>
  <rect x="0" y="8" width="16" height="1" fill="#484848"/>
  <rect x="0" y="9" width="16" height="1" fill="#484848"/>
  <rect x="0" y="10" width="16" height="1" fill="#484848"/>
  <rect x="1" y="11" width="14" height="1" fill="#484848"/>
  <rect x="1" y="12" width="14" height="1" fill="#484848"/>
  <rect x="2" y="13" width="12" height="1" fill="#484848"/>
  <rect x="3" y="14" width="10" height="1" fill="#484848"/>
  <rect x="5" y="15" width="6" height="1" fill="#484848"/>

  <!-- Center hole -->
  <rect x="7" y="7" width="2" height="2" fill="#D8D8D8"/>

  <!-- Rainbow streak -->
  <rect x="5" y="1" width="1" height="1" fill="#E0A0A0"/>
  <rect x="3" y="2" width="1" height="1" fill="#D8C8A0"/>
  <rect x="2" y="3" width="1" height="1" fill="#A0D0A0"/>
  <rect x="1" y="4" width="1" height="1" fill="#A0B8D8"/>
  <rect x="0" y="5" width="1" height="1" fill="#B0A0D8"/>
</svg>
