<svg xmlns="http://www.w3.org/2000/svg" viewBox="0 0 16 16" shape-rendering="crispEdges">
  <!-- B: Headphones pixel icon -->
  <!-- Band -->
  <rect x="5" y="0" width="6" height="1" fill="#333"/>
  <rect x="3" y="1" width="2" height="1" fill="#333"/>
  <rect x="11" y="1" width="2" height="1" fill="#333"/>
  <rect x="2" y="2" width="1" height="1" fill="#333"/>
  <rect x="13" y="2" width="1" height="1" fill="#333"/>
  <rect x="1" y="3" width="1" height="3" fill="#333"/>
  <rect x="14" y="3" width="1" height="3" fill="#333"/>
  <!-- Left ear -->
  <rect x="0" y="6" width="3" height="1" fill="#333"/>
  <rect x="0" y="7" width="4" height="1" fill="#333"/>
  <rect x="0" y="8" width="4" height="1" fill="#333"/>
  <rect x="0" y="9" width="4" height="1" fill="#333"/>
  <rect x="0" y="10" width="4" height="1" fill="#333"/>
  <rect x="0" y="11" width="4" height="1" fill="#333"/>
  <rect x="0" y="12" width="3" height="1" fill="#333"/>
  <!-- Right ear -->
  <rect x="13" y="6" width="3" height="1" fill="#333"/>
  <rect x="12" y="7" width="4" height="1" fill="#333"/>
  <rect x="12" y="8" width="4" height="1" fill="#333"/>
  <rect x="12" y="9" width="4" height="1" fill="#333"/>
  <rect x="12" y="10" width="4" height="1" fill="#333"/>
  <rect x="12" y="11" width="4" height="1" fill="#333"/>
  <rect x="13" y="12" width="3" height="1" fill="#333"/>
</svg>
